<svg aria-hidden="true" style="position: absolute; width: 0; height: 0; overflow: hidden;" version="1.1"
    xmlns="http://www.w3.org/2000/svg"
    xmlns:xlink="http://www.w3.org/1999/xlink" fill="currentColor">
    <defs>
        <symbol viewBox="0 0 24 24"
            xmlns="http://www.w3.org/2000/svg" id="icon_archive">
            <path fill-rule="evenodd" clip-rule="evenodd" d="M6.24223 4.5H17.7578L19.5 8.85556V18L18.75 18.75H5.25L4.5 18V8.85556L6.24223 4.5ZM7.25777 6L6.35777 8.25H17.6422L16.7422 6H7.25777ZM18 9.75H6V17.25H18V9.75ZM9.59473 13.6553L10.6554 12.5946L11.25 13.1892V11.25H12.75V13.1894L13.3447 12.5946L14.4054 13.6553L12.0001 16.0606L9.59473 13.6553Z" fill="currentColor"/>
        </symbol>
        <symbol xmlns="http://www.w3.org/2000/svg" id="icon_unarchive" fill="currentColor" viewBox="0 0 640 512">            <!--!Font Awesome Free 6.5.2 by @fontawesome - https://fontawesome.com License - https://fontawesome.com/license/free Copyright 2024 Fonticons, Inc.-->
            <path d="M58.9 42.1c3-6.1 9.6-9.6 16.3-8.7L320 64 564.8 33.4c6.7-.8 13.3 2.7 16.3 8.7l41.7 83.4c9 17.9-.6 39.6-19.8 45.1L439.6 217.3c-13.9 4-28.8-1.9-36.2-14.3L320 64 236.6 203c-7.4 12.4-22.3 18.3-36.2 14.3L37.1 170.6c-19.3-5.5-28.8-27.2-19.8-45.1L58.9 42.1zM321.1 128l54.9 91.4c14.9 24.8 44.6 36.6 72.5 28.6L576 211.6v167c0 22-15 41.2-36.4 46.6l-204.1 51c-10.2 2.6-20.9 2.6-31 0l-204.1-51C79 419.7 64 400.5 64 378.5v-167L191.6 248c27.8 8 57.6-3.8 72.5-28.6L318.9 128h2.2z"/>
        </symbol>
        <symbol version="1.1" id="icon_out" fill="currentColor"
            xmlns="http://www.w3.org/2000/svg"
            xmlns:xlink="http://www.w3.org/1999/xlink" x="0px" y="0px" viewBox="0 0 29.586 29.595" style="enable-background:new 0 0 29.586 29.595;" xml:space="preserve">
            <g>
                <path d="M23.486,16.708c-0.377-0.378-0.879-0.586-1.413-0.586c0,0-0.001,0-0.002,0c-0.534,0-1.036,0.209-1.413,0.586l-2.828,2.828
		l-8.485-8.485l2.828-2.828c0.78-0.78,0.78-2.05-0.001-2.83L7.929,1.15C7.552,0.773,7.05,0.565,6.516,0.565H6.515
		c-0.535,0-1.037,0.209-1.414,0.587L0.858,5.395C0.729,5.523-0.389,6.733,0.142,9.392c0.626,3.129,3.246,7.019,7.787,11.56
		c6.499,6.499,10.598,7.937,12.953,7.937c1.63,0,2.426-0.689,2.604-0.867l4.242-4.242c0.378-0.378,0.587-0.881,0.586-1.416
		c0-0.535-0.208-1.037-0.586-1.415L23.486,16.708z M22.072,26.607c-0.028,0.029-3.409,2.249-12.729-7.07
		c-9.521-9.52-7.067-12.729-7.071-12.729l4.243-4.244l4.243,4.244l-3.535,3.535c-0.391,0.391-0.391,1.023,0,1.414l9.899,9.899
		c0.391,0.391,1.023,0.391,1.414,0l3.535-3.536l4.243,4.244L22.072,26.607z"/>
                <path d="M27.879,0h-7v2h4.586L15.172,12.293l1.414,1.414L26.879,3.414V8h2V1C28.879,0.448,28.431,0,27.879,0z"/>
            </g>
        </symbol>
        <symbol version="1.1" id="icon_in" fill="currentColor"
            xmlns="http://www.w3.org/2000/svg"
            xmlns:xlink="http://www.w3.org/1999/xlink" x="0px" y="0px" viewBox="0 0 29.586 29.595" style="enable-background:new 0 0 29.586 29.595;" xml:space="preserve">
            <g>
                <path d="M23.486,17.415c-0.377-0.378-0.879-0.586-1.413-0.586c0,0-0.001,0-0.002,0c-0.534,0-1.036,0.209-1.413,0.586l-2.828,2.828
		l-8.485-8.485l2.828-2.828c0.78-0.78,0.78-2.05-0.001-2.83L7.929,1.857C7.552,1.48,7.05,1.272,6.516,1.272H6.515
		c-0.535,0-1.037,0.209-1.414,0.587L0.858,6.102C0.729,6.23-0.389,7.44,0.142,10.099c0.626,3.129,3.246,7.019,7.787,11.56
		c6.499,6.499,10.598,7.937,12.953,7.937c1.63,0,2.426-0.689,2.604-0.867l4.242-4.242c0.378-0.378,0.587-0.881,0.586-1.416
		c0-0.535-0.208-1.037-0.586-1.415L23.486,17.415z M22.072,27.314c-0.029,0.029-3.409,2.249-12.729-7.07
		c-9.521-9.52-7.067-12.729-7.071-12.729l4.243-4.244l4.243,4.244l-3.535,3.535c-0.391,0.391-0.391,1.023,0,1.414l9.899,9.899
		c0.391,0.391,1.023,0.391,1.414,0l3.535-3.536l4.243,4.244L22.072,27.314z"/>
                <path d="M16.879,13.707h7v-2h-4.586L29.586,1.414L28.172,0L17.879,10.293V5.707h-2v7C15.879,13.259,16.327,13.707,16.879,13.707z" />
            </g>
        </symbol>
    </defs>
</svg>